<svg width="50" height="50" viewBox="0 0 177 116" fill="none" xmlns="http://www.w3.org/2000/svg">
<path d="M0 116V90H8.65815C11.0335 90 13.1688 90.5238 15.0641 91.5714C16.9594 92.6071 18.4363 94.0774 19.4947 95.9821C20.5654 97.875 21.1069 100 21.1192 102.357V103.554C21.1192 105.935 20.5962 108.071 19.5501 109.964C18.5163 111.845 17.0517 113.321 15.1564 114.393C13.2734 115.452 11.1688 115.988 8.84276 116H0ZM6.47977 94.8393V111.179H8.732C10.5904 111.179 12.018 110.542 13.0149 109.268C14.0118 107.982 14.5103 106.077 14.5103 103.554V102.429C14.5103 99.9167 14.0118 98.0238 13.0149 96.75C12.018 95.4762 10.5658 94.8393 8.65815 94.8393H6.47977Z" fill="#496ECE"/>
<path d="M39.3032 111.143H30.4235L28.8728 116H21.95L31.8081 90H37.9002L47.8321 116H40.8724L39.3032 111.143ZM31.9742 106.304H37.7525L34.8541 97.2857L31.9742 106.304Z" fill="#496ECE"/>
<path d="M68.6929 94.8393H60.6255V116H54.1458V94.8393H46.226V90H68.6929V94.8393Z" fill="#496ECE"/>
<path d="M84.4954 111.143H75.6158L74.065 116H67.1422L77.0003 90H83.0924L93.0244 116H86.0646L84.4954 111.143ZM77.1665 106.304H82.9447L80.0464 97.2857L77.1665 106.304Z" fill="#496ECE"/>
<path d="M106.48 111.179H117.759V116H100V90H106.48V111.179Z" fill="#FBE075"/>
<path d="M127.396 116H120.935V90H127.396V116Z" fill="#FBE075"/>
<path d="M154.349 116H147.906L138.38 99.8214V116H131.9V90H138.38L147.888 106.179V90H154.349V116Z" fill="#FBE075"/>
<path d="M175.117 104.982H164.927V111.179H176.963V116H158.447V90H177V94.8393H164.927V100.321H175.117V104.982Z" fill="#FBE075"/>
<path d="M104 5C104 2.23858 106.239 0 109 0H123C125.761 0 128 2.23858 128 5V82H104V5Z" fill="#496ECE"/>
<path d="M75 32C75 29.2386 77.2386 27 80 27H92C94.7614 27 97 29.2386 97 32V82H75V32Z" fill="#FBE075"/>
<path d="M44 61C44 58.2386 46.2386 56 49 56H63C65.7614 56 68 58.2386 68 61V82H44V61Z" fill="#F1F3FB"/>
</svg>
